<svg xmlns="http://www.w3.org/2000/svg" width="900" height="600">
  <rect width="900" height="600" fill="#5b3b2b"/>
  <rect x="24" y="14" width="852" height="572" rx="10" fill="#6b4431" stroke="#3b2418" stroke-width="6"/>
  <rect x="30" y="20" width="840" height="70" rx="8" fill="#3b2418"/>
  <text x="450" y="62" text-anchor="middle" fill="#f2e4cf" font-size="28" font-family="Arial" font-weight="bold">CONSTRUCTIONS</text>

  <g font-family="Arial" fill="#f2e4cf">
    <rect x="30" y="110" width="840" height="90" rx="6" fill="#7a4f36" stroke="#2a1a10" stroke-width="3"/>
    <circle cx="80" cy="155" r="30" fill="#2a1a10"/>
    <text x="130" y="145" font-size="24" font-weight="bold">Barracks</text>
    <text x="130" y="172" font-size="16" fill="#dfc9a3">+Unlock units / +cap</text>
    <text x="520" y="160" font-size="16" fill="#e4c46a">200G 100W</text>
    <rect x="680" y="135" width="160" height="40" rx="10" fill="#2a1a10"/>
    <text x="760" y="160" text-anchor="middle" font-size="16" fill="#f7ead2">BUILD</text>

    <rect x="30" y="220" width="840" height="90" rx="6" fill="#7a4f36" stroke="#2a1a10" stroke-width="3"/>
    <circle cx="80" cy="265" r="30" fill="#2a1a10"/>
    <text x="130" y="255" font-size="24" font-weight="bold">Spikes</text>
    <text x="130" y="282" font-size="16" fill="#dfc9a3">Stop carts / delay</text>
    <text x="520" y="270" font-size="16" fill="#e4c46a">100W</text>
    <rect x="680" y="245" width="160" height="40" rx="10" fill="#2a1a10"/>
    <text x="760" y="270" text-anchor="middle" font-size="16" fill="#f7ead2">BUILD</text>

    <rect x="30" y="330" width="840" height="90" rx="6" fill="#7a4f36" stroke="#2a1a10" stroke-width="3"/>
    <circle cx="80" cy="375" r="30" fill="#2a1a10"/>
    <text x="130" y="365" font-size="24" font-weight="bold">Mine</text>
    <text x="130" y="392" font-size="16" fill="#dfc9a3">+Gold income</text>
    <text x="520" y="380" font-size="16" fill="#e4c46a">150W 50S</text>
    <rect x="680" y="355" width="160" height="40" rx="10" fill="#2a1a10"/>
    <text x="760" y="380" text-anchor="middle" font-size="16" fill="#f7ead2">BUILD</text>

    <rect x="30" y="440" width="840" height="90" rx="6" fill="#7a4f36" stroke="#2a1a10" stroke-width="3"/>
    <circle cx="80" cy="485" r="30" fill="#2a1a10"/>
    <text x="130" y="475" font-size="24" font-weight="bold">Tower Upgrade</text>
    <text x="130" y="502" font-size="16" fill="#dfc9a3">+DPS</text>
    <text x="520" y="490" font-size="16" fill="#e4c46a">50W 20S</text>
    <rect x="660" y="465" width="200" height="40" rx="10" fill="#2a1a10"/>
    <text x="760" y="490" text-anchor="middle" font-size="16" fill="#f7ead2">UPGRADE</text>
  </g>
</svg>